<?xml version="1.0" encoding="UTF-8"?><svg id="Layer_2" xmlns="http://www.w3.org/2000/svg" viewBox="0 0 247.088 303.629"><defs><style>.cls-1{fill:#fff;}</style></defs><g id="Layer_1_copy"><path class="cls-1" d="m141.582,60.996c-35.882,0-61.3,3.583-61.3,27.359,0,13.901,2.689,22.425,7.629,26.909,5.378,4.034,7.617,4.484,35.87,4.484v57.857c-40.36,0-47.539,3.583-47.539,31.392,0,27.803,23.629,31.392,65.34,31.392v63.241c-54.718,0-98.083-4.928-117.356-20.186C7.179,269.992,0,251.157,0,219.758c0-45.294,14.358-65.029,52.929-70.858v-1.351c-17.947-4.928-24.676-7.623-30.954-13.001-11.657-9.868-17.935-28.259-17.935-52.028,0-27.359,8.067-49.784,22.425-62.34C44.399,4.034,83.275,0,141.582,0v60.996ZM160.733,0v61.017s26.245,0,26.245,0L199.967,0h-39.234Zm47.121,0v61.017s26.245,0,26.245,0L247.088,0h-39.234Z"/></g></svg>